<svg xmlns="http://www.w3.org/2000/svg" width="48" height="48"><g transform="translate(0 -1004.362)"><circle cx="37.045" cy="28.409" r="12.5" fill="#50b748" fill-rule="evenodd" transform="matrix(1.92 0 0 1.92 -47.127 973.817)"/><g transform="translate(224.41 -185.27) scale(.94118)"><circle cx="17" cy="16" r="13" fill="#35495e" transform="translate(-235 1275.362)"/><path fill="#60c5b8" d="M-211.75 1279.956c-1.533.049-3.014.879-3.313.813-.364-.082-2.132.225-2.78.468-.65.244-.589.553-.75.594-.163.041-.25.185-.5.469-.252.283.124.625.124.625s.963.216 1.125-.5c.096-.426-.04.363 0 .687.04.325.645.406.969 0 .146-.182.126-.629.219-.781.114-.186.366-.043.5-.062.08-.01-.104.126 0 .188.207.122.633-.088.531.406-.041.198-.669.238-.75.531-.082.293-.219.469-.219.469l-1.344.03-.437-.624s-.426.184-.313.562c.079.26-.125.563-.125.563s-.687.11-.687.312c0 .111-.28.125-.438.188-.129.05-.216.263-.343.28l-.656.095c-.286.035-.157.1-.157.219 0 .162.531.187.531.187s.34.132.22.375c-.122.244.086.344-.157.344-.106 0-.35-.033-.594-.031-.315 0-.617-.1-.625.03-.03.501-.031 1.22-.031 1.22s.427.21.656.156c.318-.074.784.175 1-.406.017-.045.028-.142.063-.188.15-.197.313-.595.562-.719.153-.077.366-.027.438-.03.162-.01.437-.22.437-.22s.718.098.907.813c.056.211.003.558.125.625.074.041.406-.312.406-.312l.375.03-.219-.5-.687-.78.125-.063s.52.036.562.157c.04.122.668.43.563.781-.176.581.25.719.25.719s.369.087.53-.219c.142-.267.157-.5.157-.5l.469-.094s-.045-.973.469-1c.513-.026.562 0 .562 0s1.128.373 1.25.656c.121.284.177.554-.187.594-.365.041-.907-.031-.907-.031s-1.434-.217-1.312.188c.121.405.25.812.25.812s.311-.031.594.031c.3.069.687.031.687.031l.063.688-.188.061c-.204.057-.806.096-.969.157-.162.06-1.928-.249-1.968-.188-.041.06-.614.268-.938.188-.324-.081-.406-.844-.406-.844s-.059-.364-.281-.344l-1.75.156s-.5.223-.5.344c0 0-.142-.101-.344 0-.203.102-.513.088-.594.25-.081.163-.4.466-.562.75-.162.284-.628.306-.75.813-.122.506-.208 1.353-.188 1.718.02.365.01 1.27.375 1.47.365.198.849.691 1.031.874.182.182 1.16.331 1.282.25.121-.08.558-.25.78-.25.224 0 .703.035.845.156.141.122.315.384.437.688.121.304.243.817.344 1 .101.182.486.53.344.875-.142.345-.385.688-.344 1.094.04.405.283.942.375 1.125.092.182.677.754.656.937-.02.182.152.137.375.219.223.081 1.17-.181 1.313-.344.142-.162.361-.674.625-.937.263-.264.81-.696 1.093-1 .284-.305.574-.584.594-.969.02-.386-.203-1.233 0-1.375.203-.142.484-.361.688-.625.202-.263.633-.243.937-1.094.304-.851.405-1.115.344-1.156-.06-.041-.544.16-.625.281-.081.122-.555.152-.656.25-.102.098-.563 0-.563 0s.195-.768.094-1.031c-.102-.263-.62-1.292-.781-1.656-.134-.3-.157-.646-.094-.875.026.037.042.058.062.094.072.13.461.59.625 1.062.351 1.014.75 1.75.75 1.75s.528.02 1.407-.656c.597-.46 1.236-.483 1.343-.719.203-.446-.625-.844-.625-.844h-.75l-.562-.968.156-.062s.623.718.906.718c.284 0 1.038-.065 1.282.22.243.283 1.003.762 1.125 1.25.122.485.06 1.165.28 1.405.312.339.595.313.595.313l.375-.875.875-1 .625-.313v-.03c.016-.16.022-.312.03-.47a13.001 13.001 0 0 0-6.718-10.718zm-14.219 1.125a13.013 13.013 0 0 0-3.094 3.469c.234-.448.594-.688.594-.688l.781-.562s-.311 1.693.094 1.937c.405.243.794-.507.875-.75.081-.243.926-1.17 1.25-1.656.325-.487.049-1.638-.437-1.719-.025 0-.042-.023-.063-.03zm-3.094 3.469a12.865 12.865 0 0 0-1.843 5.218c.008-.01.025-.024.031-.03.649-.811 2.375-1.594 2.375-1.594s.57-.065-.406-1.688c-.488-.81-.39-1.458-.157-1.906zm8.594-3.438c-.194.02-.594.124-.594.438v.593s-.12.214-.187.282c-.068.068-.009.378.031.5s.063.5.063.5.196.102.25.156c.054.053.516.17.718.062.203-.108.32-.393.47-.406.148-.014.057-.013.03-.125-.026-.108.125-.5.125-.5l-.406-.344s-.246-.526-.219-.688c.027-.162-.2-.448-.187-.468.003-.01-.03-.01-.094 0zm-1.062 1.188c-.055.024-.161.157-.219.187-.077.04-.053.174-.094.281-.04.109-.156.5-.156.5l.25.094s.397-.075.438-.156c.032-.065-.085-.42-.125-.562-.01-.034 0-.062 0-.062l-.063-.251c-.01-.02-.013-.04-.031-.031zm10.469 3.437c.092 0 .271.064.312.094.054.041.054.516 0 .813a.455.455 0 0 0 .25.5c.082.027.139.677.125.812-.013.135-.395.237-.5.25-.105.014-.545.01-.531-.187.014-.197-.076-.837-.156-1.094-.081-.257-.06-.62.062-.688.122-.067.375-.468.375-.468.01-.022.032-.03.063-.031zm-19.782 7.688c.03.189.056.376.094.562a12.99 12.99 0 0 0 1.969 4.656c.1.128.178.288.281.407.607.698 1.245 1.245 1.812 1.812l.594-.875.438-1.75-1.063-.656-1.219-.406-.812-1.969s-.883-.726-1.531-.969c-.207-.078-.363-.383-.563-.812zm19.219 3.375c-.049 0-.12.01-.188.03 0 0-.028.6-.312.782-.283.182-.469.536-.469.719 0 .182-.06.348 0 .53.06.183.2.334.375.313.176-.02.366-.4.406-.562.041-.162.192-.512.313-.625.122-.113.146-.431.125-.594-.017-.142.09-.601-.25-.594z"/></g><g transform="translate(157.352 60.378) scale(.94118)"><rect width="22" height="3" x="-147.75" y="1013.362" fill="#1f2c38" rx="1.5" ry="1.5"/><rect width="22" height="3" x="-147.75" y="1040.362" fill="#1f2c38" rx="1.5" ry="1.5"/><path fill="#e9eded" fill-rule="evenodd" d="M-145.75 1016.362c0 8 8 7 8 12s-8 4-8 12h18c0-8-8-7-8-12s8-4 8-12z"/><path fill="#fcd062" fill-rule="evenodd" d="M-144.438 1039.362h15.373c0-2.603-1.812-4.122-3.69-5.455-3.995 2.306-3.995-2.413-6.867-.755-2.2 1.543-4.815 3.106-4.815 6.21zm11.185-16.196c-1.562 1.088-3.064 2.102-3.497 3.56-.598-2.233-3.788-3.424-5.866-5.434 3.866-2.232 4.866 3.079 9.363 1.874z"/><circle cx="-136.25" cy="1031.862" r=".5" fill="#fcd062"/><circle cx="-137.25" cy="1030.862" r=".257" fill="#fcd062"/><circle cx="-136.29" cy="1030.12" r=".257" fill="#fcd062"/><circle cx="-134.906" cy="1033.98" r="1.218" fill="#fcd062"/><circle cx="-136.734" cy="1028.862" r=".257" fill="#fcd062"/><circle cx="-136.75" cy="1027.628" r=".257" fill="#fcd062"/></g></g></svg>